<?xml version='1.0' encoding='utf-8'?>
<svg width="119.81907mm" height="103.81907mm" viewBox="-61.909535 -51.909535 119.81907 103.81907" version="1.1" xmlns="http://www.w3.org/2000/svg">
  <g transform="scale(1,-1)" stroke-linecap="round">
    <g fill="rgb(23,63,112)" stroke="rgb(255,255,255)" stroke-width="0.09" id="Layer 1">
      <path d="M -61.864535,-5.15 L -61.864535,-6.85 A 3.15,3.15 0.0 0,1 -58.714535,-10.0 L -50.891355,-10.0 A 51.864535089018204,51.864535089018204 0.0 0,1 50.891355,-10.0 L 54.714535,-10.0 A 3.15,3.15 0.0 0,1 57.864535,-6.85 L 57.864535,-5.15 A 3.15,3.15 0.0 0,1 54.714535,-2.0 L 34.94281,-2.0 A 35.0,35.0 0.0 0,0 -34.94281,-2.0 L -58.714535,-2.0 A 3.15,3.15 0.0 0,1 -61.864535,-5.15" />
      <path d="M -58.714535,2.0 L -34.94281,2.0 A 35.0,35.0 0.0 0,0 34.94281,2.0 L 54.714535,2.0 A 3.15,3.15 0.0 0,1 57.864535,5.15 L 57.864535,6.85 A 3.15,3.15 0.0 0,1 54.714535,10.0 L 50.891355,10.0 A 51.864535089018204,51.864535089018204 0.0 0,1 -50.891355,10.0 L -58.714535,10.0 A 3.15,3.15 0.0 0,1 -61.864535,6.85 L -61.864535,5.15 A 3.15,3.15 0.0 0,1 -58.714535,2.0" />
      <path d="M -6.34,10.151953 L -6.34,-9.54 C -6.34,-11.196094 -5.00793,-12.528047 -3.351953,-12.528047 L 5.504023,-12.528047 C 10.184023,-12.528047 14.0,-8.64 14.0,-3.888047 C 14.0,-1.08 12.668047,1.44 10.65207,3.06 C 11.228047,4.103906 11.588047,5.291953 11.588047,6.551953 C 11.588047,10.18793 8.67207,13.14 5.07207,13.14 L -3.351953,13.14 C -5.00793,13.14 -6.34,11.80793 -6.34,10.151953 M -0.363906,4.60793 L -0.363906,8.243906 L 4.568047,8.243906 C 5.324023,8.243906 6.044023,7.451953 6.044023,6.551953 C 6.044023,5.615977 5.324023,4.60793 4.568047,4.60793 L -0.363906,4.60793 M -0.363906,0.18 L 5.0,0.18 C 6.836094,0.18 8.31207,-1.728047 8.31207,-3.78 C 8.31207,-5.868047 6.836094,-7.596094 5.0,-7.596094 L -0.363906,-7.596094 L -0.363906,0.18" />
      <path d="M -27.471953,10.151953 L -27.471953,-10.15207 C -27.471953,-11.808047 -26.14,-13.14 -24.484024,-13.14 C -22.82793,-13.14 -21.495977,-11.808047 -21.495977,-10.15207 L -21.495977,-1.584023 L -14.404024,-1.584023 C -13.035977,-1.584023 -11.92,-0.468047 -11.92,0.9 C -11.92,2.231953 -13.035977,3.34793 -14.404024,3.34793 L -21.495977,3.34793 L -21.495977,8.171953 L -12.02793,8.171953 C -10.66,8.171953 -9.544024,9.28793 -9.544024,10.655977 C -9.544024,12.023906 -10.66,13.14 -12.02793,13.14 L -24.484024,13.14 C -26.14,13.14 -27.471953,11.80793 -27.471953,10.151953" />
      <path d="M 17.655977,1.432012 L 26.08,1.432012 C 26.98,1.432012 27.735977,2.152012 27.735977,3.052012 C 27.735977,3.916035 26.98,4.636035 26.08,4.636035 L 22.335977,4.636035 C 24.531953,6.544082 27.484024,10.216035 27.484024,13.672012 C 27.484024,16.876035 24.92793,18.567988 22.011953,18.567988 C 19.564024,18.567988 17.54793,17.344082 16.64793,15.472012 C 16.46793,15.076035 16.395977,14.787988 16.395977,14.500059 C 16.395977,13.527988 17.224024,12.592012 18.304024,12.592012 C 19.131953,12.592012 19.851953,13.132012 20.14,13.887988 C 20.355977,14.607988 20.86,15.220059 21.795977,15.220059 C 22.66,15.220059 23.48793,14.680059 23.48793,13.204082 C 23.48793,10.324082 20.24793,7.227988 17.90793,5.392012 C 16.215977,4.096035 16.0,3.627988 16.0,3.124082 C 16.0,2.187988 16.755977,1.432012 17.655977,1.432012" />
    </g>
  </g>
</svg>