<?xml version='1.0' encoding='utf-8'?>
<svg width="119.81907mm" height="103.81907mm" viewBox="-61.909535 -51.909535 119.81907 103.81907" version="1.1" xmlns="http://www.w3.org/2000/svg">
  <g transform="scale(1,-1)" stroke-linecap="round">
    <g fill="rgb(23,63,112)" stroke="rgb(255,255,255)" stroke-width="0.09" id="Layer 1">
      <path d="M -61.864535,-5.15 L -61.864535,-6.85 A 3.15,3.15 0.0 0,1 -58.714535,-10.0 L -50.891355,-10.0 A 51.864535089018204,51.864535089018204 0.0 0,1 50.891355,-10.0 L 54.714535,-10.0 A 3.15,3.15 0.0 0,1 57.864535,-6.85 L 57.864535,-5.15 A 3.15,3.15 0.0 0,1 54.714535,-2.0 L 34.94281,-2.0 A 35.0,35.0 0.0 0,0 -34.94281,-2.0 L -58.714535,-2.0 A 3.15,3.15 0.0 0,1 -61.864535,-5.15 M -7.395893,-39.608553 L -9.139323,-45.936771 C -9.285935,-46.468937 -9.831945,-46.779077 -10.364111,-46.632464 L -13.07126,-45.886642 C -14.228158,-45.567916 -14.903876,-44.36107 -14.581965,-43.192611 C -14.47041,-42.787696 -14.249537,-42.437778 -13.972018,-42.153301 C -14.476447,-41.454212 -14.681375,-40.526459 -14.432765,-39.624063 C -14.01205,-38.096973 -12.441516,-37.185356 -10.937549,-37.5997 L -8.091587,-38.383765 C -7.559421,-38.530377 -7.249271,-39.07635 -7.395893,-39.608553 M -19.602381,-37.304791 L -21.692949,-41.625616 C -21.933378,-42.122539 -22.526446,-42.328813 -23.023334,-42.088401 C -23.520222,-41.847989 -23.726549,-41.254939 -23.48612,-40.758016 L -21.536675,-36.728869 C -20.569788,-34.730487 -18.654703,-34.244018 -16.969588,-35.059336 C -15.273678,-35.879878 -14.466623,-37.683415 -15.433511,-39.681796 L -17.382955,-43.710944 C -17.623384,-44.207867 -18.216417,-44.414158 -18.713305,-44.173746 C -19.210192,-43.933334 -19.416519,-43.340284 -19.17609,-42.843361 L -17.085522,-38.522537 C -16.71445,-37.755598 -16.978244,-36.868127 -17.680378,-36.52841 C -18.371717,-36.193915 -19.231309,-36.537852 -19.602381,-37.304791 M 2.078354,-46.078621 C 2.534305,-46.083408 2.902371,-46.459285 2.897583,-46.915276 C 2.892796,-47.371227 2.516918,-47.739333 2.060967,-47.734545 L -3.062774,-47.680747 C -3.518726,-47.675959 -3.88683,-47.300042 -3.882043,-46.844091 C -3.877255,-46.3881 -3.501339,-46.020035 -3.045387,-46.024822 L -1.485473,-46.041201 L -1.421344,-39.93353 C -1.415548,-39.381568 -0.966888,-38.94227 -0.414926,-38.948066 C 0.137036,-38.953861 0.576334,-39.402483 0.570539,-39.954444 L 0.506409,-46.062116 L 2.078354,-46.078621 M -21.432052,-33.842255 L -25.46954,-39.274071 C -25.798834,-39.717085 -26.420047,-39.808585 -26.863061,-39.479291 L -30.195366,-37.002377 C -30.561321,-36.730362 -30.637934,-36.209866 -30.365919,-35.843912 C -30.093881,-35.477927 -29.573417,-35.40129 -29.207462,-35.673305 L -26.674532,-37.556041 L -25.715267,-36.265498 L -27.612535,-34.855252 C -27.978521,-34.583214 -28.055158,-34.062749 -27.790297,-33.70642 C -27.518258,-33.340434 -26.997794,-33.263797 -26.631808,-33.535836 L -24.73454,-34.946082 L -23.03077,-32.653923 C -22.701476,-32.210909 -22.080286,-32.119441 -21.637241,-32.448758 C -21.194227,-32.778051 -21.102759,-33.399242 -21.432052,-33.842255 M -26.714545,-29.849024 L -31.591728,-34.541466 C -31.989507,-34.924177 -32.617307,-34.912084 -33.000018,-34.514306 L -35.878732,-31.522256 C -36.194873,-31.193669 -36.184691,-30.667663 -35.856104,-30.351522 C -35.527488,-30.035354 -35.00151,-30.045508 -34.685369,-30.374096 L -32.497219,-32.648394 L -31.338451,-31.533519 L -32.977465,-29.829977 C -33.293633,-29.501361 -33.283479,-28.975383 -32.963533,-28.667557 C -32.634918,-28.351389 -32.108939,-28.361543 -31.792771,-28.690158 L -30.153758,-30.3937 L -28.095646,-28.413548 C -27.697868,-28.030837 -27.070096,-28.042956 -26.687358,-28.440763 C -26.304647,-28.838541 -26.316766,-29.466313 -26.714545,-29.849024 M 5.73912,-42.063585 L 6.491938,-46.487964 C 6.584537,-47.032173 6.221318,-47.544342 5.677147,-47.636934 C 5.132938,-47.729532 4.620769,-47.366313 4.528171,-46.822104 L 3.394913,-40.161853 C 3.282192,-39.499382 3.735783,-38.874441 4.386431,-38.763732 C 4.824163,-38.68925 5.266609,-38.857417 5.543974,-39.199726 L 8.799465,-43.380895 L 8.078845,-39.14575 C 7.986253,-38.601579 8.349472,-38.089411 8.893643,-37.996819 C 9.437852,-37.90422 9.95002,-38.267439 10.042612,-38.81161 L 11.173865,-45.460078 C 11.286586,-46.122548 10.835007,-46.759311 10.160676,-46.87405 C 9.734804,-46.946513 9.282509,-46.792188 9.014993,-46.436038 L 5.73912,-42.063585 M 15.610829,-39.801953 L 14.947488,-37.987408 L 11.98333,-39.071013 C 11.555072,-39.227571 11.077958,-39.005878 10.921401,-38.57762 C 10.76483,-38.149326 10.986486,-37.672226 11.414743,-37.515668 L 15.314369,-36.090086 C 15.832805,-35.900561 16.402239,-36.165115 16.591777,-36.683588 L 18.845494,-42.848541 C 19.035018,-43.366978 18.770477,-43.936449 18.252041,-44.125973 L 14.352416,-45.551556 C 13.924159,-45.708113 13.447045,-45.48642 13.290487,-45.058163 C 13.133916,-44.629869 13.355573,-44.152768 13.78383,-43.996211 L 16.747988,-42.912606 L 16.179402,-41.357261 L 13.959127,-42.168925 C 13.530833,-42.325496 13.053732,-42.10384 12.897175,-41.675583 C 12.740604,-41.247289 12.96226,-40.770188 13.390554,-40.613617 L 15.610829,-39.801953 M 24.63227,-31.724494 L 28.254471,-37.554973 C 28.577424,-38.074815 28.419109,-38.752374 27.909453,-39.068999 C 27.522135,-39.309622 27.01972,-39.296804 26.665559,-39.022376 L 21.95756,-35.37809 L 23.145099,-41.223636 C 23.234213,-41.662725 23.02698,-42.102249 22.649815,-42.336564 C 22.14016,-42.653189 21.479136,-42.498764 21.162511,-41.989109 L 17.527653,-36.138257 C 17.236362,-35.669381 17.379233,-35.057934 17.848109,-34.766644 C 18.316986,-34.475353 18.928412,-34.61819 19.219703,-35.087067 L 20.752179,-37.553819 L 20.109121,-34.040062 C 20.047811,-33.668453 20.223084,-33.291184 20.539097,-33.09486 C 20.865263,-32.892229 21.270984,-32.908553 21.576935,-33.128178 L 24.516983,-35.313796 L 22.940187,-32.775705 C 22.648897,-32.306829 22.791767,-31.695382 23.260644,-31.404092 C 23.72952,-31.112801 24.340979,-31.255618 24.63227,-31.724494 M 30.088907,-26.823111 L 33.311291,-33.183033 C 33.561991,-33.689961 33.453519,-34.306899 33.036363,-34.704107 C 32.62792,-35.09302 32.015067,-35.162914 31.52105,-34.887669 L 25.317808,-31.366068 C 25.225612,-31.318534 25.150577,-31.262938 25.092705,-31.19928 C 24.736898,-30.825605 24.734488,-30.231398 25.116877,-29.867294 C 25.42973,-29.569401 25.889438,-29.512748 26.249012,-29.733751 L 27.194482,-30.291654 L 28.932585,-28.636662 L 28.412957,-27.673281 C 28.218508,-27.295048 28.2976,-26.838665 28.610453,-26.540772 C 28.992842,-26.176669 29.577533,-26.216437 29.93334,-26.590112 C 29.994102,-26.651018 30.045958,-26.728684 30.088907,-26.823111 M -34.699447,-24.976826 L -33.105556,-23.88499 L -34.889129,-21.281281 C -35.146817,-20.905101 -35.050118,-20.38796 -34.673937,-20.130272 C -34.297725,-19.872562 -33.780606,-19.969229 -33.522918,-20.345409 L -31.176462,-23.77083 C -30.864512,-24.226223 -30.979888,-24.843421 -31.435313,-25.155392 L -36.850592,-28.864926 C -37.305985,-29.176876 -37.923215,-29.061523 -38.235165,-28.60613 L -40.581621,-25.180709 C -40.839309,-24.804529 -40.742609,-24.287388 -40.366429,-24.0297 C -39.990217,-23.77199 -39.473098,-23.868657 -39.21541,-24.244838 L -37.431837,-26.848547 L -36.065626,-25.912675 L -37.401595,-23.962391 C -37.659305,-23.586178 -37.562638,-23.06906 -37.186457,-22.811372 C -36.810245,-22.553661 -36.293126,-22.650329 -36.035416,-23.026541 L -34.699447,-24.976826 M -35.981045,-17.407524 C -35.476045,-17.184654 -34.890597,-17.411579 -34.667727,-17.916579 C -34.444857,-18.421578 -34.671767,-19.007061 -35.176766,-19.229932 L -41.368592,-21.962554 C -41.873591,-22.185424 -42.45909,-21.958479 -42.68196,-21.45348 L -43.873844,-18.7528 C -44.503704,-17.325608 -43.820625,-15.633789 -42.360483,-14.989388 C -41.405377,-14.567874 -40.337148,-14.699793 -39.535627,-15.23801 L -38.075017,-13.465335 C -37.983293,-13.346163 -37.86125,-13.266086 -37.751466,-13.217636 C -37.301359,-13.018991 -36.751108,-13.195866 -36.542763,-13.667952 C -36.402253,-13.986332 -36.451932,-14.349282 -36.663415,-14.613106 L -38.414939,-16.737135 L -37.770538,-18.197277 L -35.981045,-17.407524 M 30.04563,-25.167994 L 32.085104,-22.497761 C 32.42018,-22.059055 33.042512,-21.975708 33.481218,-22.310784 L 38.859806,-26.418849 C 39.298512,-26.753924 39.381859,-27.376256 39.046783,-27.814962 C 38.711732,-28.253637 38.089399,-28.336985 37.650693,-28.001909 L 32.787055,-24.287152 L 31.352125,-26.165871 C 31.075353,-26.528241 30.553932,-26.598073 30.201092,-26.328581 C 29.838691,-26.051785 29.768859,-25.530365 30.04563,-25.167994 M 34.017468,-20.964421 C 33.540475,-20.68662 33.380259,-20.079516 33.65808,-19.60249 C 33.935881,-19.125497 34.542985,-18.965281 35.019978,-19.243082 L 41.04468,-22.751877 C 41.521706,-23.029698 41.681922,-23.636802 41.404121,-24.113794 C 41.1263,-24.590821 40.519196,-24.751036 40.04217,-24.473216 L 34.017468,-20.964421 M 37.874282,-13.044919 L 44.091135,-15.720114 C 44.598175,-15.9383 44.830546,-16.521638 44.612359,-17.028678 L 42.971183,-20.842588 C 42.790949,-21.261432 42.302177,-21.456078 41.883333,-21.275844 C 41.464453,-21.095594 41.269792,-20.606858 41.450026,-20.188014 L 42.697506,-17.289009 L 41.220447,-16.653411 L 40.286033,-18.824883 C 40.105784,-19.243763 39.617047,-19.438425 39.209219,-19.262931 C 38.790339,-19.082681 38.595678,-18.593944 38.775927,-18.175065 L 39.710341,-16.003592 L 37.086906,-14.874693 C 36.579865,-14.656507 36.347531,-14.073184 36.565732,-13.566108 C 36.783919,-13.059067 37.367241,-12.826733 37.874282,-13.044919" />
      <path d="M 29.709523,-30.183474 L 28.692716,-31.15166 L 31.241096,-32.801294 L 29.709523,-30.183474" />
      <path d="M -10.890875,-44.794506 L -10.568963,-43.626046 L -12.153899,-43.189395 C -12.39684,-43.122464 -12.717467,-43.382666 -12.800334,-43.683452 C -12.880016,-43.972676 -12.718752,-44.290924 -12.475811,-44.357854 L -10.890875,-44.794506" />
      <path d="M -11.900684,-41.72819 L -10.176936,-42.203084 L -9.488478,-39.704154 L -11.212227,-39.229259 C -11.802275,-39.066701 -12.429588,-39.491351 -12.614454,-40.162367 C -12.796124,-40.821784 -12.490732,-41.565631 -11.900684,-41.72819" />
      <path d="M -42.271593,-18.2818 L -41.569058,-19.873668 L -39.285536,-18.865887 L -39.988071,-17.274019 C -40.25455,-16.670207 -40.953388,-16.453957 -41.568171,-16.725277 C -42.215904,-17.01114 -42.518704,-17.721873 -42.271593,-18.2818" />
      <path d="M -58.714535,2.0 L -34.94281,2.0 A 35.0,35.0 0.0 0,0 34.94281,2.0 L 54.714535,2.0 A 3.15,3.15 0.0 0,1 57.864535,5.15 L 57.864535,6.85 A 3.15,3.15 0.0 0,1 54.714535,10.0 L 50.891355,10.0 A 51.864535089018204,51.864535089018204 0.0 0,1 -25.434032,45.2 L -58.714535,45.2 A 3.15,3.15 0.0 0,1 -61.864535,42.05 L -61.864535,5.15 A 3.15,3.15 0.0 0,1 -58.714535,2.0 M -36.540567,16.413959 L -42.490251,19.639978 C -42.975501,19.903089 -43.154209,20.505038 -42.891098,20.990289 L -40.912002,24.640295 C -40.694658,25.041139 -40.190296,25.190822 -39.789452,24.973477 C -39.388574,24.756114 -39.238872,24.251787 -39.456217,23.850943 L -40.960554,21.076523 L -39.546972,20.310055 L -38.420162,22.388208 C -38.202799,22.789087 -37.698472,22.938788 -37.30817,22.72716 C -36.907291,22.509797 -36.75759,22.00547 -36.974953,21.604591 L -38.101763,19.526438 L -35.59107,18.165098 C -35.10582,17.901987 -34.927146,17.300056 -35.190276,16.814772 C -35.453387,16.329521 -36.055317,16.150848 -36.540567,16.413959 M -34.316957,25.499802 L -32.793483,24.311685 L -30.85263,26.800364 C -30.572218,27.159925 -30.050088,27.224471 -29.690528,26.94406 C -29.330936,26.663624 -29.266365,26.141525 -29.546777,25.781965 L -32.10015,22.507877 C -32.439609,22.072603 -33.06275,21.995536 -33.498054,22.335018 L -38.67409,26.371669 C -39.109363,26.711128 -39.186462,27.334293 -38.847003,27.769567 L -36.29363,31.043654 C -36.013218,31.403215 -35.491089,31.467762 -35.131528,31.18735 C -34.771937,30.906914 -34.707366,30.384816 -34.987778,30.025255 L -36.928631,27.536576 L -35.622779,26.518177 L -34.169,28.382299 C -33.888565,28.74189 -33.366466,28.806461 -33.006905,28.526049 C -32.647314,28.245614 -32.582743,27.723515 -32.863179,27.363924 L -34.316957,25.499802 M 34.260861,20.587639 C 33.778067,20.320048 33.174508,20.493142 32.906917,20.975936 C 32.639326,21.458731 32.812402,22.062323 33.295196,22.329914 L 39.214764,25.610865 C 39.697559,25.878457 40.30117,25.705347 40.568761,25.222553 L 41.999809,22.640623 C 42.756055,21.276185 42.228648,19.529563 40.832709,18.755857 C 39.919599,18.249761 38.84382,18.284613 37.996944,18.748201 L 36.702492,16.850794 C 36.621912,16.723821 36.507604,16.633044 36.402648,16.574871 C 35.972332,16.336366 35.408349,16.462796 35.158198,16.914123 C 34.989493,17.218505 35.006171,17.584458 35.19295,17.866314 L 36.745376,20.139925 L 35.97167,21.535864 L 34.260861,20.587639 M 32.300527,28.010166 L 30.811817,26.77877 L 32.823371,24.34688 C 33.113997,23.995524 33.064423,23.471761 32.713067,23.181135 C 32.361682,22.890483 31.837943,22.940027 31.547317,23.291383 L 28.900931,26.490759 C 28.549107,26.916101 28.60824,27.541199 29.033611,27.893048 L 34.091534,32.076743 C 34.516876,32.428567 35.142004,32.369459 35.493828,31.944118 L 38.140213,28.744742 C 38.43084,28.393386 38.381265,27.869623 38.02991,27.578997 C 37.678524,27.288345 37.154785,27.337889 36.864159,27.689245 L 34.852605,30.121135 L 33.576551,29.065638 L 35.083287,27.244054 C 35.373938,26.892668 35.324394,26.368929 34.973038,26.078303 C 34.621652,25.787652 34.097914,25.837196 33.807263,26.188582 L 32.300527,28.010166 M -27.139942,32.645156 L -30.121143,35.9999 C -30.487838,36.412542 -30.450884,37.039342 -30.038272,37.406011 C -29.62563,37.772706 -28.99883,37.735753 -28.632135,37.323111 L -24.144376,32.273038 C -23.697995,31.770726 -23.751904,31.000408 -24.245252,30.561993 C -24.577158,30.267044 -25.041537,30.175444 -25.458076,30.318979 L -30.433599,32.14232 L -27.579906,28.93106 C -27.213237,28.518448 -27.250191,27.891647 -27.662803,27.524978 C -28.075445,27.158283 -28.702245,27.195237 -29.068914,27.60785 L -33.548733,32.648988 C -33.995114,33.1513 -33.949171,33.930582 -33.437865,34.384954 C -33.114952,34.671912 -32.649546,34.780468 -32.234035,34.619976 L -27.139942,32.645156 M -23.276452,32.93373 L -26.544156,38.626533 C -26.818951,39.105264 -26.654938,39.711382 -26.176173,39.986196 L -24.063503,41.198881 C -22.075707,42.339888 -19.506748,41.600665 -18.335853,39.560798 C -17.159006,37.510565 -17.816324,34.919439 -19.804119,33.778433 L -21.91679,32.565747 C -22.395554,32.290933 -23.001638,32.454965 -23.276452,32.93373 M -14.832616,40.098466 L -14.204744,38.271345 L -11.220041,39.297009 C -10.788816,39.445196 -10.316111,39.214251 -10.167924,38.783026 C -10.019725,38.351764 -10.250632,37.879071 -10.681858,37.730885 L -14.60851,36.381528 C -15.13054,36.202138 -15.694713,36.477733 -15.874116,36.999799 L -18.007326,43.20748 C -18.186716,43.729509 -17.911134,44.29372 -17.389105,44.47311 L -13.462452,45.822467 C -13.031227,45.970653 -12.558522,45.739709 -12.410335,45.308483 C -12.262136,44.877221 -12.493043,44.404528 -12.924269,44.256342 L -15.908971,43.230678 L -15.370787,41.664553 L -13.135123,42.432818 C -12.703861,42.581017 -12.231169,42.350109 -12.082982,41.918884 C -11.934783,41.487622 -12.16569,41.014929 -12.596952,40.86673 L -14.832616,40.098466 M -7.195387,39.31773 C -7.115071,38.771612 -7.48973,38.267752 -8.035848,38.187436 C -8.581966,38.10712 -9.085865,38.481773 -9.16618,39.027891 L -10.150939,45.723873 C -10.231255,46.269991 -9.856563,46.773896 -9.310445,46.854212 L -6.389868,47.283732 C -4.846469,47.510715 -3.397696,46.401705 -3.165473,44.822674 C -3.013571,43.7898 -3.425242,42.795294 -4.157498,42.166076 L -2.837881,40.286084 C -2.747444,40.165933 -2.702765,40.026971 -2.685304,39.908248 C -2.613719,39.421491 -2.930761,38.938226 -3.441285,38.863145 C -3.785589,38.812509 -4.122196,38.957062 -4.320164,39.231175 L -5.90096,41.485153 L -7.479991,41.252929 L -7.195387,39.31773 M 20.988698,36.901995 L 23.077859,40.874057 C 23.33483,41.36263 23.934453,41.548901 24.422992,41.291947 C 24.911565,41.034975 25.097836,40.435353 24.840865,39.946779 L 21.695941,33.967425 C 21.383127,33.372681 20.643217,33.151709 20.059086,33.458941 C 19.666105,33.665635 19.416754,34.067957 19.404316,34.508356 L 19.357581,39.807245 L 17.357775,36.005071 C 17.100821,35.516532 16.501199,35.330261 16.01266,35.587214 C 15.524087,35.844186 15.337816,36.443809 15.594769,36.932348 L 18.734129,42.901123 C 19.046943,43.495867 19.792435,43.727452 20.397828,43.409038 C 20.780161,43.207944 21.045742,42.810636 21.04195,42.365223 L 20.988698,36.901995 M 22.620077,33.387961 L 26.7964,38.451973 C 27.147604,38.877826 27.77264,38.937899 28.198523,38.58667 L 30.077842,37.036785 C 31.846078,35.578509 32.059442,32.913837 30.562967,31.099282 C 29.058886,29.275504 26.402328,28.977676 24.634092,30.435952 L 22.754774,31.985837 C 22.328891,32.337066 22.268848,32.962078 22.620077,33.387961 M 1.654187,40.259165 L 2.474493,46.771691 C 2.543476,47.319355 3.039508,47.704408 3.587173,47.635425 L 6.373167,47.284506 C 7.56376,47.134541 8.405158,46.036762 8.253694,44.834271 C 8.201207,44.417564 8.032657,44.039649 7.798684,43.718402 C 8.397924,43.098656 8.733452,42.209756 8.616478,41.281078 C 8.418526,39.709511 6.994541,38.582618 5.446771,38.777572 L 2.517921,39.146485 C 1.970256,39.215468 1.585199,39.711462 1.654187,40.259165 M 11.772754,41.101043 L 11.197635,39.256637 L 14.210573,38.317149 C 14.645878,38.181413 14.890259,37.715512 14.754523,37.280207 C 14.618775,36.844865 14.152912,36.600472 13.717607,36.736208 L 9.753808,37.972192 C 9.22684,38.136511 8.93515,38.692533 9.099479,39.219538 L 11.053458,45.485945 C 11.217776,46.012913 11.77381,46.30464 12.300778,46.140322 L 16.264578,44.904338 C 16.699882,44.768602 16.944263,44.302702 16.808528,43.867397 C 16.67278,43.432054 16.206917,43.187662 15.771612,43.323398 L 12.758674,44.262886 L 12.265708,42.681946 L 14.522521,41.978231 C 14.957864,41.842483 15.202256,41.37662 15.06652,40.941315 C 14.930773,40.505973 14.464909,40.26158 14.029567,40.397328 L 11.772754,41.101043" />
      <path d="M -24.487981,39.045789 L -21.871414,34.48736 L -20.820279,35.090717 C -19.654637,35.759803 -19.282623,37.329326 -20.005458,38.588607 C -20.722323,39.837488 -22.271203,40.318233 -23.436846,39.649147 L -24.487981,39.045789" />
      <path d="M -6.362631,45.613909 L -8.084114,45.360736 L -7.720939,42.891283 L -5.999456,43.144456 C -5.34648,43.240488 -4.95191,43.856485 -5.049686,44.521326 C -5.152702,45.221799 -5.757113,45.702961 -6.362631,45.613909" />
      <path d="M 4.371424,45.891715 L 4.219961,44.689225 L 5.851057,44.483775 C 6.101074,44.452283 6.381184,44.755672 6.420174,45.065218 C 6.457665,45.362866 6.252537,45.654774 6.00252,45.686265 L 4.371424,45.891715" />
      <path d="M 5.809459,43.001375 L 4.035507,43.224819 L 3.711579,40.653108 L 5.48553,40.429665 C 6.092764,40.353179 6.652884,40.863194 6.739865,41.553753 C 6.825344,42.232375 6.416692,42.924889 5.809459,43.001375" />
      <path d="M 27.913267,36.675392 L 24.569137,32.620458 L 25.50417,31.84933 C 26.541063,30.994197 28.141007,31.199067 29.064835,32.319256 C 29.981032,33.430194 29.885193,35.049132 28.8483,35.904264 L 27.913267,36.675392" />
      <path d="M 40.446673,22.026766 L 39.603167,23.548639 L 37.420053,22.338637 L 38.263559,20.816764 C 38.583509,20.239502 39.299029,20.087285 39.88678,20.413049 C 40.506032,20.756272 40.74337,21.49146 40.446673,22.026766" />
      <path d="M -6.34,10.151953 L -6.34,-9.54 C -6.34,-11.196094 -5.00793,-12.528047 -3.351953,-12.528047 L 5.504023,-12.528047 C 10.184023,-12.528047 14.0,-8.64 14.0,-3.888047 C 14.0,-1.08 12.668047,1.44 10.65207,3.06 C 11.228047,4.103906 11.588047,5.291953 11.588047,6.551953 C 11.588047,10.18793 8.67207,13.14 5.07207,13.14 L -3.351953,13.14 C -5.00793,13.14 -6.34,11.80793 -6.34,10.151953 M -0.363906,4.60793 L -0.363906,8.243906 L 4.568047,8.243906 C 5.324023,8.243906 6.044023,7.451953 6.044023,6.551953 C 6.044023,5.615977 5.324023,4.60793 4.568047,4.60793 L -0.363906,4.60793 M -0.363906,0.18 L 5.0,0.18 C 6.836094,0.18 8.31207,-1.728047 8.31207,-3.78 C 8.31207,-5.868047 6.836094,-7.596094 5.0,-7.596094 L -0.363906,-7.596094 L -0.363906,0.18" />
      <path d="M -27.471953,10.151953 L -27.471953,-10.15207 C -27.471953,-11.808047 -26.14,-13.14 -24.484024,-13.14 C -22.82793,-13.14 -21.495977,-11.808047 -21.495977,-10.15207 L -21.495977,-1.584023 L -14.404024,-1.584023 C -13.035977,-1.584023 -11.92,-0.468047 -11.92,0.9 C -11.92,2.231953 -13.035977,3.34793 -14.404024,3.34793 L -21.495977,3.34793 L -21.495977,8.171953 L -12.02793,8.171953 C -10.66,8.171953 -9.544024,9.28793 -9.544024,10.655977 C -9.544024,12.023906 -10.66,13.14 -12.02793,13.14 L -24.484024,13.14 C -26.14,13.14 -27.471953,11.80793 -27.471953,10.151953" />
      <path d="M 17.655977,1.432012 L 26.08,1.432012 C 26.98,1.432012 27.735977,2.152012 27.735977,3.052012 C 27.735977,3.916035 26.98,4.636035 26.08,4.636035 L 22.335977,4.636035 C 24.531953,6.544082 27.484024,10.216035 27.484024,13.672012 C 27.484024,16.876035 24.92793,18.567988 22.011953,18.567988 C 19.564024,18.567988 17.54793,17.344082 16.64793,15.472012 C 16.46793,15.076035 16.395977,14.787988 16.395977,14.500059 C 16.395977,13.527988 17.224024,12.592012 18.304024,12.592012 C 19.131953,12.592012 19.851953,13.132012 20.14,13.887988 C 20.355977,14.607988 20.86,15.220059 21.795977,15.220059 C 22.66,15.220059 23.48793,14.680059 23.48793,13.204082 C 23.48793,10.324082 20.24793,7.227988 17.90793,5.392012 C 16.215977,4.096035 16.0,3.627988 16.0,3.124082 C 16.0,2.187988 16.755977,1.432012 17.655977,1.432012" />
    </g>
  </g>
</svg>